<svg xmlns="http://www.w3.org/2000/svg" version="1.0" width="441.186" height="78.042" viewBox="0 0 4411.86 780.416"><path d="M443 1130c-55-33-63-62-63-225V760H245c-150 0-187-9-223-55-26-33-30-111-7-154 29-56 56-61 352-61 196 0 272 3 281 12s12 85 12 280c0 298-3 312-63 348-19 12-50 20-77 20s-58-8-77-20z" transform="matrix(.74325 0 0 .74325 .079 -74.325)" style="fill:#ee3537;stroke:none"/><g style="fill:#848688;stroke:none"><path d="M4560.792 425.642c-64-17-101-76-92-149 5-51 27-81 74-100 96-41 196 21 196 121 0 47-20 86-56 109-25 17-92 27-122 19zm73-95c34-34-1-97-45-81-51 19-42 93 12 93 12 0 26-5 33-12zM1271.87 634.767c-15-15-5-23 24-21 42 4 46-13 9-34-36-21-40-55-8-67 25-9 58-3 58 10 0 5-11 9-24 9-34 0-42 18-14 29 61 23 57 81-6 81-18 0-36-3-39-7zM1417.87 629.767c38-92 51-118 61-118 12 0 61 118 53 127-9 8-27-7-27-23 0-22-48-18-55 6-3 11-13 20-22 20-8 0-13-6-10-12zM1604.87 575.767v-65l36 3c64 5 74 69 12 76-21 3-24 7-20 28 3 17 0 24-12 24-13 0-16-12-16-66zm58-27c2-11-3-17-15-17s-19 7-19 20c0 25 29 23 34-3zM1764.87 576.767c0-51 3-65 15-65s15 14 15 65-3 65-15 65-15-14-15-65zM1874.87 576.767v-65h29c16 0 36 3 45 6 18 7 22 49 5 59-7 5-5 15 5 31 19 29 20 34 3 34-8 0-20-11-27-25s-17-25-22-25c-4 0-8 11-8 25 0 16-6 25-15 25-12 0-15-14-15-65zm59-18c12-15 5-27-16-27-7 0-13 9-13 20 0 23 13 26 29 7zM2024.87 637.767c0-19 55-126 64-123 13 4 59 117 50 126-3 3-13-4-21-16-19-28-50-30-58-3-5 17-35 30-35 16zM2214.87 576.767c0-78 13-84 52-22l28 42v-42c0-61 17-53 22 10 7 92-8 100-52 30l-30-47v47c0 26-4 47-10 47s-10-28-10-65zM2410.87 619.767c-36-51-7-108 55-108 28 0 39 4 39 15 0 9-6 12-15 9-8-4-26-3-40 0-44 11-29 86 17 86 10 0 18-7 18-15s-7-15-15-15-15-7-15-15c0-9 9-15 25-15 23 0 25 4 25 40 0 40 0 40-39 40-30 0-44-6-55-22zM2574.87 634.767c0-22 47-123 57-123 6 0 19 21 29 48 9 26 21 51 26 57 12 14 10 25-6 25-8 0-18-9-21-20-4-12-15-20-30-20-14 0-25 7-28 20-5 18-27 29-27 13zM3041.122 422.639c-16-9-18-27-18-154 0-160 5-175 64-175 39 0 57 18 81 83 10 26 21 50 25 52s18-24 31-58c28-69 56-89 107-71l27 9 3 150c2 132 1 151-15 162-48 36-83 3-84-80-1-56-2-59-11-32-16 44-27 55-60 55-24 0-32-7-48-42l-20-43v67c0 56-3 69-19 78-24 12-41 12-63-1zM3477.122 417.639c-59-29-83-118-49-184 39-75 163-86 219-19 30 35 37 106 11 115-11 5-12 9-2 25 36 58-95 105-179 63zm121-74c4-6-14-10-47-10-38 0-49 3-38 10 20 13 77 13 85 0zm-22-86c-7-18-64-16-71 4-2 8 9 12 37 12 32 0 39-3 34-16zM3754.122 407.639c-81-67-58-206 38-235 31-9 43-8 67 4l29 15v-113l37-3c60-5 68 17 68 185v143l-26 17c-24 15-29 16-54 1-23-13-29-13-45-2-30 22-80 17-114-12zm131-100c5-40-10-57-44-52-14 2-26 13-33 32-8 24-6 31 13 46 32 26 59 15 64-26zM4065.122 417.639c-20-14-22-23-22-110 0-113 8-134 53-134 51 0 57 13 57 126 0 95-2 104-22 118-12 9-27 16-33 16s-21-7-33-16zM4256.122 413.639c-98-59-74-210 38-240 48-13 105 5 132 42 20 27 20 28 2 48-21 24-50 26-59 5-7-18-47-20-64-3-20 20-15 66 9 79 18 9 27 7 50-10 31-23 61-17 73 14 24 63-107 111-181 65zM868.841 401.998c-12.635-8.919-14.122-20.067-14.122-97.366 0-57.973 2.973-89.933 8.92-95.88 5.945-5.945 35.675-8.918 85.473-8.918 112.975 0 144.192 17.095 155.34 86.217 5.946 38.65-5.946 76.555-31.216 100.34-17.095 16.35-27.5 17.837-104.799 21.553-63.92 2.974-89.934 1.487-99.596-5.946z" style="fill:#fff" transform="translate(-326.931 90.035)"/><path d="M3493.122 138.639c0-24 60-85 84-85 47 0 63 57 24 84-30 21-108 22-108 1zM4053.122 139.639c-18-23-8-59 21-75 24-13 29-13 53 2 28 19 35 54 14 75-17 17-73 15-88-2zM1335 426c-129-48-151-224-38-301 74-50 213-25 229 41 6 21 2 31-16 46-27 22-44 23-60 3s-74-19-94 1c-20 19-21 74-2 99 17 23 69 24 94 2s45-21 67 3c15 16 17 26 9 47-21 58-112 87-189 59zM1633 421c-98-46-98-188 0-234 90-43 188 10 191 102 1 29-3 36-24 41s-22 7-7 13c10 4 17 17 17 31 0 55-102 82-177 47zm113-76c17-13 15-14-33-15-29 0-53 4-53 9 0 23 58 27 86 6zm-28-91c-10-10-23-14-37-9-34 10-24 25 16 25 34 0 36-1 21-16zM2255 430c-37-14-48-39-49-103-1-51-4-64-21-72-11-6-21-23-23-38-3-21 2-29 23-37 14-5 24-13 22-17-3-5-1-18 4-30 6-18 16-23 42-23 38 0 57 15 57 46 0 17 7 23 28 26 22 2 28 8 30 36 3 29 0 33-27 38-29 6-31 9-31 51 0 43 1 45 25 39 18-5 27-1 35 14 27 50-50 97-115 70zM2745 433c-64-17-101-76-92-149 5-51 27-81 74-100 96-41 196 21 196 121 0 47-20 86-56 109-25 17-92 27-122 19zm73-95c34-34-1-97-45-81-51 19-42 93 12 93 12 0 26-5 33-12zM614.649 150.036c-2.973-2.23-5.203-43.109-5.203-89.19 0-121.15 20.068-150.88 104.055-150.88 43.852 0 74.326 14.864 92.164 44.594 14.865 26.014 17.094 177.638 2.973 191.76-9.663 9.662-185.07 13.378-193.99 3.716zM1883 423c-10-3-13-38-13-123 0-107 2-119 19-125 21-6 71 13 71 27 0 5 12 0 26-11 31-25 64-27 103-6 38 19 41 30 41 140 0 99-3 105-55 105-34 0-44-19-47-95-3-67-4-70-28-70s-25 3-28 70c-2 38-8 75-14 82-10 13-51 16-75 6zM2420 411c-5-11-10-67-10-124 0-105 0-105 26-111 17-5 35-1 50 9 22 14 26 14 49-1 54-35 116 18 81 70-13 21-21 24-47 19-40-8-49 6-49 78 0 30-5 60-12 67-20 20-76 15-88-7z" style="fill:#fff" transform="translate(-326.931 90.035)"/></g></svg>